{
  "accessors": [
    {
      "bufferView": 2,
      "componentType": 5126,
      "count": 16,
      "max": [
        0.0,
        0.0,
        2.6500000953674316
      ],
      "min": [
        -3.0,
        -0.8999999761581421,
        2.4000000953674316
      ],
      "type": "VEC3"
    },
    {
      "bufferView": 2,
      "byteOffset": 192,
      "componentType": 5126,
      "count": 16,
      "max": [
        1.0,
        1.0,
        0.0
      ],
      "min": [
        -1.0,
        -1.0,
        0.0
      ],
      "type": "VEC3"
    },
    {
      "bufferView": 1,
      "componentType": 5126,
      "count": 16,
      "max": [
        6.6666669845581055,
        0.5555559992790222
      ],
      "min": [
        0.0,
        0.0
      ],
      "type": "VEC2"
    },
    {
      "bufferView": 0,
      "componentType": 5125,
      "count": 24,
      "type": "SCALAR"
    },
    {
      "bufferView": 2,
      "byteOffset": 384,
      "componentType": 5126,
      "count": 48,
      "max": [
        0.10000000149011612,
        0.10000000149011612,
        2.6489999294281006
      ],
      "min": [
        -3.0,
        -0.9150000214576721,
        0.0010000000474974513
      ],
      "type": "VEC3"
    },
    {
      "bufferView": 2,
      "byteOffset": 960,
      "componentType": 5126,
      "count": 48,
      "max": [
        1.0,
        1.0,
        1.0
      ],
      "min": [
        -1.0,
        -1.0,
        -1.0
      ],
      "type": "VEC3"
    },
    {
      "bufferView": 1,
      "byteOffset": 128,
      "componentType": 5126,
      "count": 48,
      "max": [
        14.088899612426758,
        5.884444236755371
      ],
      "min": [
        -0.6522939801216125,
        -2.404266119003296
      ],
      "type": "VEC2"
    },
    {
      "bufferView": 0,
      "byteOffset": 96,
      "componentType": 5125,
      "count": 72,
      "type": "SCALAR"
    },
    {
      "bufferView": 2,
      "byteOffset": 1536,
      "componentType": 5126,
      "count": 240,
      "max": [
        0.0,
        -0.8999999761581421,
        2.384999990463257
      ],
      "min": [
        -3.0,
        -0.9150000214576721,
        0.0
      ],
      "type": "VEC3"
    },
    {
      "bufferView": 2,
      "byteOffset": 4416,
      "componentType": 5126,
      "count": 240,
      "max": [
        1.0,
        1.0,
        1.0
      ],
      "min": [
        -1.0,
        0.0,
        -1.0
      ],
      "type": "VEC3"
    },
    {
      "bufferView": 1,
      "byteOffset": 512,
      "componentType": 5126,
      "count": 240,
      "max": [
        1838.58251953125,
        441.4853210449219
      ],
      "min": [
        0.0,
        0.0
      ],
      "type": "VEC2"
    },
    {
      "bufferView": 0,
      "byteOffset": 384,
      "componentType": 5125,
      "count": 360,
      "type": "SCALAR"
    },
    {
      "bufferView": 2,
      "byteOffset": 7296,
      "componentType": 5126,
      "count": 82,
      "max": [
        0.0,
        -0.8999999761581421,
        2.4000000953674316
      ],
      "min": [
        -3.0,
        -0.9150000214576721,
        2.384999990463257
      ],
      "type": "VEC3"
    },
    {
      "bufferView": 2,
      "byteOffset": 8280,
      "componentType": 5126,
      "count": 82,
      "max": [
        1.0,
        1.0,
        1.0
      ],
      "min": [
        -1.0,
        -1.0,
        -1.0
      ],
      "type": "VEC3"
    },
    {
      "bufferView": 1,
      "byteOffset": 2432,
      "componentType": 5126,
      "count": 82,
      "max": [
        0.2762880027294159,
        1.433148980140686
      ],
      "min": [
        -621.9605712890625,
        -0.9358530044555664
      ],
      "type": "VEC2"
    },
    {
      "bufferView": 0,
      "byteOffset": 1824,
      "componentType": 5125,
      "count": 258,
      "type": "SCALAR"
    },
    {
      "bufferView": 2,
      "byteOffset": 9264,
      "componentType": 5126,
      "count": 48,
      "max": [
        0.699999988079071,
        0.699999988079071,
        2.4000000953674316
      ],
      "min": [
        -3.5999999046325684,
        -1.5149999856948853,
        2.4000000953674316
      ],
      "type": "VEC3"
    },
    {
      "bufferView": 2,
      "byteOffset": 9840,
      "componentType": 5126,
      "count": 48,
      "max": [
        0.0,
        0.0,
        1.0
      ],
      "min": [
        0.0,
        0.0,
        1.0
      ],
      "type": "VEC3"
    },
    {
      "bufferView": 1,
      "byteOffset": 3088,
      "componentType": 5126,
      "count": 48,
      "max": [
        6.728271961212158,
        2.753269910812378
      ],
      "min": [
        -0.4383949935436249,
        -0.9383950233459473
      ],
      "type": "VEC2"
    },
    {
      "bufferView": 0,
      "byteOffset": 2856,
      "componentType": 5125,
      "count": 144,
      "type": "SCALAR"
    },
    {
      "bufferView": 2,
      "byteOffset": 10416,
      "componentType": 5126,
      "count": 30,
      "max": [
        0.0,
        0.014000000432133675,
        2.615000009536743
      ],
      "min": [
        -0.009999999776482582,
        -0.9139999747276306,
        2.4207100868225098
      ],
      "type": "VEC3"
    },
    {
      "bufferView": 2,
      "byteOffset": 10776,
      "componentType": 5126,
      "count": 30,
      "max": [
        1.0,
        1.0,
        1.0
      ],
      "min": [
        -1.0,
        -1.0,
        -1.0
      ],
      "type": "VEC3"
    },
    {
      "bufferView": 1,
      "byteOffset": 3472,
      "componentType": 5126,
      "count": 30,
      "max": [
        1839.4342041015625,
        -0.062174998223781586
      ],
      "min": [
        -0.49764499068260193,
        -439.1003112792969
      ],
      "type": "VEC2"
    },
    {
      "bufferView": 0,
      "byteOffset": 3432,
      "componentType": 5125,
      "count": 54,
      "type": "SCALAR"
    },
    {
      "bufferView": 2,
      "byteOffset": 11136,
      "componentType": 5126,
      "count": 468,
      "max": [
        -0.0010100000072270632,
        -0.9049999713897705,
        2.384999990463257
      ],
      "min": [
        -2.998990058898926,
        -0.9100000262260437,
        0.0
      ],
      "type": "VEC3"
    },
    {
      "bufferView": 2,
      "byteOffset": 16752,
      "componentType": 5126,
      "count": 468,
      "max": [
        0.9983906149864197,
        0.9983906149864197,
        1.0
      ],
      "min": [
        -0.9983906149864197,
        -0.9983906149864197,
        -1.0
      ],
      "type": "VEC3"
    },
    {
      "bufferView": 1,
      "byteOffset": 3712,
      "componentType": 5126,
      "count": 468,
      "max": [
        2.384999990463257,
        0.003994000144302845
      ],
      "min": [
        -0.002495999913662672,
        -0.026579000055789948
      ],
      "type": "VEC2"
    },
    {
      "bufferView": 0,
      "byteOffset": 3648,
      "componentType": 5125,
      "count": 1296,
      "type": "SCALAR"
    },
    {
      "bufferView": 2,
      "byteOffset": 22368,
      "componentType": 5126,
      "count": 52,
      "max": [
        3.0999999046325684,
        3.0999999046325684,
        2.6500000953674316
      ],
      "min": [
        -6.0,
        -3.9149999618530273,
        0.0
      ],
      "type": "VEC3"
    },
    {
      "bufferView": 2,
      "byteOffset": 22992,
      "componentType": 5126,
      "count": 52,
      "max": [
        0.0,
        0.0,
        1.0
      ],
      "min": [
        0.0,
        0.0,
        1.0
      ],
      "type": "VEC3"
    },
    {
      "bufferView": 1,
      "byteOffset": 7456,
      "componentType": 5126,
      "count": 52,
      "max": [
        15.166666984558105,
        11.691664695739746
      ],
      "min": [
        -0.10265500098466873,
        -0.6026560068130493
      ],
      "type": "VEC2"
    },
    {
      "bufferView": 0,
      "byteOffset": 8832,
      "componentType": 5125,
      "count": 150,
      "type": "SCALAR"
    },
    {
      "bufferView": 2,
      "byteOffset": 23616,
      "componentType": 5126,
      "count": 2080,
      "max": [
        -0.04500000178813934,
        0.01899999938905239,
        2.455709934234619
      ],
      "min": [
        -2.934999942779541,
        -0.9190000295639038,
        0.15429000556468964
      ],
      "type": "VEC3"
    },
    {
      "bufferView": 2,
      "byteOffset": 48576,
      "componentType": 5126,
      "count": 2080,
      "max": [
        1.0,
        0.0,
        1.0
      ],
      "min": [
        -1.0,
        0.0,
        -1.0
      ],
      "type": "VEC3"
    },
    {
      "bufferView": 1,
      "byteOffset": 7872,
      "componentType": 5126,
      "count": 2080,
      "max": [
        0.6403489708900452,
        0.0
      ],
      "min": [
        0.0,
        0.0
      ],
      "type": "VEC2"
    },
    {
      "bufferView": 0,
      "byteOffset": 9432,
      "componentType": 5125,
      "count": 6240,
      "type": "SCALAR"
    },
    {
      "bufferView": 2,
      "byteOffset": 73536,
      "componentType": 5126,
      "count": 336,
      "max": [
        0.0,
        -0.0010000000474974513,
        2.6500000953674316
      ],
      "min": [
        -2.9700000286102295,
        -0.8989999890327454,
        0.14928999543190002
      ],
      "type": "VEC3"
    },
    {
      "bufferView": 2,
      "byteOffset": 77568,
      "componentType": 5126,
      "count": 336,
      "max": [
        1.0,
        1.0,
        1.0
      ],
      "min": [
        -1.0,
        -1.0,
        -1.0
      ],
      "type": "VEC3"
    },
    {
      "bufferView": 1,
      "byteOffset": 24512,
      "componentType": 5126,
      "count": 336,
      "max": [
        1.0485310554504395,
        0.018182000145316124
      ],
      "min": [
        -1.0971829891204834,
        -0.8179680109024048
      ],
      "type": "VEC2"
    },
    {
      "bufferView": 0,
      "byteOffset": 34392,
      "componentType": 5125,
      "count": 504,
      "type": "SCALAR"
    }
  ],
  "asset": {
    "extras": {
      "author": "Sweden (https://sketchfab.com/sweden)",
      "license": "CC-BY-4.0 (http://creativecommons.org/licenses/by/4.0/)",
      "source": "https://sketchfab.com/3d-models/glass-wall-105909288b874e38b62bd72246371166",
      "title": "Glass wall"
    },
    "generator": "Sketchfab-12.65.0",
    "version": "2.0"
  },
  "bufferViews": [
    {
      "buffer": 0,
      "byteLength": 36408,
      "name": "floatBufferViews",
      "target": 34963
    },
    {
      "buffer": 0,
      "byteLength": 27200,
      "byteOffset": 36408,
      "byteStride": 8,
      "name": "floatBufferViews",
      "target": 34962
    },
    {
      "buffer": 0,
      "byteLength": 81600,
      "byteOffset": 63608,
      "byteStride": 12,
      "name": "floatBufferViews",
      "target": 34962
    }
  ],
  "buffers": [
    {
      "byteLength": 145208,
      "uri": "scene.bin"
    }
  ],
  "images": [
    {
      "uri": "textures/x0023_BALUSTERcon_rostf.jpg1111_baseColor.jpeg"
    },
    {
      "uri": "textures/x0023_BEGIN_OPENINGcon_mur.jpg1111_baseColor.jpeg"
    },
    {
      "uri": "textures/x0023_OBJECT3Dcon_Blacktile.jpg1111_baseColor.jpeg"
    },
    {
      "uri": "textures/x0023_RISERcon_Oak2200.jpg1111_baseColor.jpeg"
    }
  ],
  "materials": [
    {
      "doubleSided": true,
      "name": "x0023_BALUSTERcon_rostf.jpg1111",
      "pbrMetallicRoughness": {
        "baseColorFactor": [
          0.0,
          0.0,
          0.0,
          1.0
        ],
        "baseColorTexture": {
          "index": 0
        },
        "metallicFactor": 0.0,
        "roughnessFactor": 0.6
      }
    },
    {
      "doubleSided": true,
      "name": "x0023_BEGIN_OPENINGcon_mur.jpg1111",
      "pbrMetallicRoughness": {
        "baseColorFactor": [
          0.17244664634146342,
          0.17244664634146342,
          0.17244664634146342,
          1.0
        ],
        "baseColorTexture": {
          "index": 1
        },
        "metallicFactor": 0.16634908536585366,
        "roughnessFactor": 0.6
      }
    },
    {
      "alphaMode": "BLEND",
      "doubleSided": true,
      "name": "x0023_BEGIN_WALLcon_mur.jpg1110_x002C_3",
      "pbrMetallicRoughness": {
        "baseColorFactor": [
          0.0,
          0.0,
          0.0,
          0.5
        ],
        "baseColorTexture": {
          "index": 1
        },
        "roughnessFactor": 0.6
      }
    },
    {
      "alphaMode": "BLEND",
      "doubleSided": true,
      "name": "x0023_BOTTOMRAIL1110_x002C_3",
      "pbrMetallicRoughness": {
        "baseColorFactor": [
          0.0,
          0.0,
          0.0,
          0.5
        ],
        "metallicFactor": 0.0,
        "roughnessFactor": 0.6
      }
    },
    {
      "doubleSided": true,
      "name": "x0023_HANDRAILcon_rostf.jpg1111",
      "pbrMetallicRoughness": {
        "baseColorFactor": [
          0.0,
          0.0,
          0.0,
          1.0
        ],
        "baseColorTexture": {
          "index": 0
        },
        "metallicFactor": 0.0,
        "roughnessFactor": 0.6
      }
    },
    {
      "doubleSided": true,
      "name": "x0023_OBJECT3D0_x002C_90_x002C_90_x002C_91",
      "pbrMetallicRoughness": {
        "baseColorFactor": [
          0.9,
          0.9,
          0.9,
          1.0
        ],
        "metallicFactor": 0.0,
        "roughnessFactor": 0.6
      }
    },
    {
      "doubleSided": true,
      "name": "x0023_OBJECT3Dcon_Blacktile.jpg1111",
      "pbrMetallicRoughness": {
        "baseColorTexture": {
          "index": 2
        },
        "metallicFactor": 0.0,
        "roughnessFactor": 0.6
      }
    },
    {
      "doubleSided": true,
      "name": "x0023_RISERcon_Oak2200.jpg1111",
      "pbrMetallicRoughness": {
        "baseColorTexture": {
          "index": 3
        },
        "metallicFactor": 0.0,
        "roughnessFactor": 0.6
      }
    },
    {
      "doubleSided": true,
      "name": "x0023_TREAD0_x002C_90_x002C_90_x002C_91",
      "pbrMetallicRoughness": {
        "baseColorFactor": [
          0.9,
          0.9,
          0.9,
          1.0
        ],
        "metallicFactor": 0.0,
        "roughnessFactor": 0.6
      }
    },
    {
      "doubleSided": true,
      "name": "x0023_TREADcon_Oak2200.jpg1111",
      "pbrMetallicRoughness": {
        "baseColorTexture": {
          "index": 3
        },
        "metallicFactor": 0.0,
        "roughnessFactor": 0.6
      }
    }
  ],
  "meshes": [
    {
      "name": "_x0023_BEGIN_OPENINGcon_mur.jpg1111",
      "primitives": [
        {
          "attributes": {
            "NORMAL": 1,
            "POSITION": 0,
            "TEXCOORD_0": 2
          },
          "indices": 3,
          "material": 1,
          "mode": 4
        }
      ]
    },
    {
      "name": "_x0023_BEGIN_WALLcon_mur.jpg1110_x002C_3",
      "primitives": [
        {
          "attributes": {
            "NORMAL": 5,
            "POSITION": 4,
            "TEXCOORD_0": 6
          },
          "indices": 7,
          "material": 2,
          "mode": 4
        }
      ]
    },
    {
      "name": "_x0023_BOTTOMRAIL1110_x002C_3",
      "primitives": [
        {
          "attributes": {
            "NORMAL": 9,
            "POSITION": 8,
            "TEXCOORD_0": 10
          },
          "indices": 11,
          "material": 3,
          "mode": 4
        }
      ]
    },
    {
      "name": "_x0023_HANDRAILcon_rostf.jpg1111",
      "primitives": [
        {
          "attributes": {
            "NORMAL": 13,
            "POSITION": 12,
            "TEXCOORD_0": 14
          },
          "indices": 15,
          "material": 4,
          "mode": 4
        }
      ]
    },
    {
      "name": "_x0023_OBJECT3D0_x002C_90_x002C_90_x002C_91",
      "primitives": [
        {
          "attributes": {
            "NORMAL": 17,
            "POSITION": 16,
            "TEXCOORD_0": 18
          },
          "indices": 19,
          "material": 5,
          "mode": 4
        }
      ]
    },
    {
      "name": "_x0023_RISERcon_Oak2200.jpg1111",
      "primitives": [
        {
          "attributes": {
            "NORMAL": 21,
            "POSITION": 20,
            "TEXCOORD_0": 22
          },
          "indices": 23,
          "material": 7,
          "mode": 4
        }
      ]
    },
    {
      "name": "_x0023_BALUSTERcon_rostf.jpg1111",
      "primitives": [
        {
          "attributes": {
            "NORMAL": 25,
            "POSITION": 24,
            "TEXCOORD_0": 26
          },
          "indices": 27,
          "material": 0,
          "mode": 4
        }
      ]
    },
    {
      "name": "_x0023_OBJECT3Dcon_Blacktile.jpg1111",
      "primitives": [
        {
          "attributes": {
            "NORMAL": 29,
            "POSITION": 28,
            "TEXCOORD_0": 30
          },
          "indices": 31,
          "material": 6,
          "mode": 4
        }
      ]
    },
    {
      "name": "_x0023_TREAD0_x002C_90_x002C_90_x002C_91",
      "primitives": [
        {
          "attributes": {
            "NORMAL": 33,
            "POSITION": 32,
            "TEXCOORD_0": 34
          },
          "indices": 35,
          "material": 8,
          "mode": 4
        }
      ]
    },
    {
      "name": "_x0023_TREADcon_Oak2200.jpg1111",
      "primitives": [
        {
          "attributes": {
            "NORMAL": 37,
            "POSITION": 36,
            "TEXCOORD_0": 38
          },
          "indices": 39,
          "material": 9,
          "mode": 4
        }
      ]
    }
  ],
  "nodes": [
    {
      "children": [
        1
      ],
      "matrix": [
        1.6788904666900635,
        0.0,
        0.0,
        0.0,
        0.0,
        3.727885703885966e-16,
        -1.6788904666900635,
        0.0,
        0.0,
        1.6788904666900635,
        3.727885703885966e-16,
        0.0,
        0.0,
        0.0,
        0.0,
        1.0
      ],
      "name": "Sketchfab_model"
    },
    {
      "children": [
        2
      ],
      "name": "Collada visual scene group"
    },
    {
      "children": [
        3,
        4,
        5,
        6,
        7,
        8,
        9,
        10,
        11,
        12
      ],
      "name": "StairCon"
    },
    {
      "mesh": 0,
      "name": "_x0023_BEGIN_OPENINGcon_mur.jpg1111"
    },
    {
      "mesh": 1,
      "name": "_x0023_BEGIN_WALLcon_mur.jpg1110_x002C_3"
    },
    {
      "mesh": 2,
      "name": "_x0023_BOTTOMRAIL1110_x002C_3"
    },
    {
      "mesh": 3,
      "name": "_x0023_HANDRAILcon_rostf.jpg1111"
    },
    {
      "mesh": 4,
      "name": "_x0023_OBJECT3D0_x002C_90_x002C_90_x002C_91"
    },
    {
      "mesh": 5,
      "name": "_x0023_RISERcon_Oak2200.jpg1111"
    },
    {
      "mesh": 6,
      "name": "_x0023_BALUSTERcon_rostf.jpg1111"
    },
    {
      "mesh": 7,
      "name": "_x0023_OBJECT3Dcon_Blacktile.jpg1111"
    },
    {
      "mesh": 8,
      "name": "_x0023_TREAD0_x002C_90_x002C_90_x002C_91"
    },
    {
      "mesh": 9,
      "name": "_x0023_TREADcon_Oak2200.jpg1111"
    }
  ],
  "samplers": [
    {
      "magFilter": 9729,
      "minFilter": 9987,
      "wrapS": 10497,
      "wrapT": 10497
    }
  ],
  "scene": 0,
  "scenes": [
    {
      "name": "Sketchfab_Scene",
      "nodes": [
        0
      ]
    }
  ],
  "textures": [
    {
      "sampler": 0,
      "source": 0
    },
    {
      "sampler": 0,
      "source": 1
    },
    {
      "sampler": 0,
      "source": 2
    },
    {
      "sampler": 0,
      "source": 3
    }
  ]
}
